<?xml version="1.0" encoding="iso-8859-1"?>
<!-- Generator: Adobe Illustrator 19.0.0, SVG Export Plug-In . SVG Version: 6.00 Build 0)  -->
<svg version="1.1" id="Layer_1" xmlns="http://www.w3.org/2000/svg" xmlns:xlink="http://www.w3.org/1999/xlink" x="0px" y="0px"
	 viewBox="0 0 511.997 511.997" style="enable-background:new 0 0 511.997 511.997;" xml:space="preserve">
<g>
	<g>
		<rect x="56.211" y="36.231" transform="matrix(0.7071 -0.7071 0.7071 0.7071 -28.8553 71.5159)" width="31.377" height="68.716"/>
	</g>
</g>
<g>
	<g>
		
			<rect x="22.642" y="100.857" transform="matrix(0.3423 -0.9396 0.9396 0.3423 -101.8377 124.9477)" width="31.378" height="68.718"/>
	</g>
</g>
<g>
	<g>
		<rect x="120.22" y="3.295" transform="matrix(0.9396 -0.3423 0.3423 0.9396 -4.6787 48.7958)" width="31.378" height="68.718"/>
	</g>
</g>
<g>
	<g>
		<path d="M376.944,316.704l74.821-53.211L133.809,133.089l130.426,318.013l51.946-73.327l134.222,134.222l60.917-60.915
			L376.944,316.704z M450.402,467.622L312.073,329.293l-40.458,57.112l-80.311-195.821l195.878,80.336l-58.671,41.727
			l138.434,138.434L450.402,467.622z"/>
	</g>
</g>
<g>
</g>
<g>
</g>
<g>
</g>
<g>
</g>
<g>
</g>
<g>
</g>
<g>
</g>
<g>
</g>
<g>
</g>
<g>
</g>
<g>
</g>
<g>
</g>
<g>
</g>
<g>
</g>
<g>
</g>
</svg>
